<?xml version="1.0" encoding="UTF-8" standalone="no"?>
<!-- Created with Inkscape (http://www.inkscape.org/) -->

<svg
   width="256"
   height="256"
   viewBox="0 0 67.733332 67.733333"
   version="1.1"
   id="svg5"
   inkscape:version="1.2 (dc2aedaf03, 2022-05-15)"
   sodipodi:docname="Icons.svg"
   xmlns:inkscape="http://www.inkscape.org/namespaces/inkscape"
   xmlns:sodipodi="http://sodipodi.sourceforge.net/DTD/sodipodi-0.dtd"
   xmlns="http://www.w3.org/2000/svg"
   xmlns:svg="http://www.w3.org/2000/svg">
  <sodipodi:namedview
     id="namedview7"
     pagecolor="#505050"
     bordercolor="#eeeeee"
     borderopacity="1"
     inkscape:showpageshadow="0"
     inkscape:pageopacity="0"
     inkscape:pagecheckerboard="0"
     inkscape:deskcolor="#505050"
     inkscape:document-units="px"
     showgrid="false"
     showguides="true"
     inkscape:zoom="3.0546875"
     inkscape:cx="113.10486"
     inkscape:cy="101.97442"
     inkscape:window-width="1920"
     inkscape:window-height="1027"
     inkscape:window-x="-8"
     inkscape:window-y="-8"
     inkscape:window-maximized="1"
     inkscape:current-layer="layer1">
    <sodipodi:guide
       position="0,50.799999"
       orientation="0,1"
       id="guide184"
       inkscape:locked="false"
       inkscape:label=""
       inkscape:color="rgb(0,134,229)" />
    <sodipodi:guide
       position="8.4666666,67.733333"
       orientation="-1,0"
       id="guide186"
       inkscape:locked="false"
       inkscape:label=""
       inkscape:color="rgb(0,134,229)" />
    <sodipodi:guide
       position="0,50.799999"
       orientation="-1,0"
       id="guide188"
       inkscape:locked="false"
       inkscape:label=""
       inkscape:color="rgb(0,134,229)" />
    <sodipodi:guide
       position="16.933333,67.733333"
       orientation="-1,0"
       id="guide190"
       inkscape:locked="false"
       inkscape:label=""
       inkscape:color="rgb(0,134,229)" />
    <sodipodi:guide
       position="25.4,67.733333"
       orientation="-1,0"
       id="guide192"
       inkscape:locked="false"
       inkscape:label=""
       inkscape:color="rgb(0,134,229)" />
    <sodipodi:guide
       position="0,59.266666"
       orientation="0,1"
       id="guide223"
       inkscape:locked="false"
       inkscape:label=""
       inkscape:color="rgb(0,134,229)" />
    <sodipodi:guide
       position="25.4,67.733333"
       orientation="-1,0"
       id="guide1920"
       inkscape:locked="false"
       inkscape:label=""
       inkscape:color="rgb(0,134,229)" />
    <sodipodi:guide
       position="33.866666,67.733333"
       orientation="-1,0"
       id="guide1940"
       inkscape:locked="false"
       inkscape:label=""
       inkscape:color="rgb(0,134,229)" />
    <sodipodi:guide
       position="42.333333,67.733333"
       orientation="-1,0"
       id="guide2255"
       inkscape:locked="false"
       inkscape:label=""
       inkscape:color="rgb(0,134,229)" />
  </sodipodi:namedview>
  <defs
     id="defs2" />
  <g
     inkscape:label="Layer 1"
     inkscape:groupmode="layer"
     id="layer1">
    <rect
       style="fill:none;fill-opacity:1;stroke:none;stroke-width:1.07785;stroke-linecap:round;stroke-linejoin:round;stroke-dasharray:none;paint-order:stroke fill markers;stop-color:#000000"
       id="rect4421"
       width="8.4666634"
       height="8.4666662"
       x="25.4"
       y="8.4666662" />
    <g
       id="g5182"
       inkscape:export-filename="g5182.png"
       inkscape:export-xdpi="96"
       inkscape:export-ydpi="96">
      <rect
         style="fill:none;fill-opacity:1;stroke:none;stroke-width:1.07785;stroke-linecap:round;stroke-linejoin:round;stroke-dasharray:none;paint-order:stroke fill markers;stop-color:#000000"
         id="rect2479"
         width="8.4666634"
         height="8.4666662"
         x="0"
         y="0" />
      <path
         id="path277"
         style="fill:#00004c;stroke-width:0.530356;stroke-linecap:round;stroke-linejoin:round;paint-order:markers fill stroke;stop-color:#000000;fill-opacity:1"
         d="M 4.2746744 0.60771484 A 3.7041667 3.7041667 0 0 0 0.57050781 4.3118815 A 3.7041667 3.7041667 0 0 0 4.2746744 8.0160481 A 3.7041667 3.7041667 0 0 0 7.978841 4.3118815 A 3.7041667 3.7041667 0 0 0 4.2746744 0.60771484 z M 4.2746744 1.6660482 A 2.6458333 2.6458333 0 0 1 6.9205077 4.3118815 A 2.6458333 2.6458333 0 0 1 4.2746744 6.9577148 A 2.6458333 2.6458333 0 0 1 1.6288411 4.3118815 A 2.6458333 2.6458333 0 0 1 4.2746744 1.6660482 z " />
      <circle
         style="fill:#00004c;stroke-width:0.325811;stroke-linecap:round;stroke-linejoin:round;paint-order:markers fill stroke;stop-color:#000000;fill-opacity:1"
         id="path442"
         cx="4.2746744"
         cy="4.3118815"
         r="1.0583333" />
    </g>
    <g
       id="g5186"
       inkscape:export-filename="g5186.png"
       inkscape:export-xdpi="96"
       inkscape:export-ydpi="96">
      <rect
         style="fill:none;fill-opacity:1;stroke:none;stroke-width:1.07785;stroke-linecap:round;stroke-linejoin:round;stroke-dasharray:none;paint-order:stroke fill markers;stop-color:#000000"
         id="rect4348"
         width="8.4666634"
         height="8.4666662"
         x="8.4666662"
         y="0" />
      <path
         id="rect1836"
         style="fill:#00004c;stroke-width:0.375086;stroke-linecap:round;stroke-linejoin:round;paint-order:markers fill stroke;stop-color:#000000;stroke:none"
         d="M 9.0061685 0.60771484 L 9.0061685 8.0160481 L 16.414502 8.0160481 L 16.414502 0.60771484 L 9.0061685 0.60771484 z M 14.2875 0.61598307 L 16.404166 0.61598307 L 16.404166 2.725415 L 14.2875 2.725415 L 14.2875 0.61598307 z M 10.064502 1.6660482 L 13.229167 1.6660482 L 13.229167 2.725415 L 13.229167 3.7837483 L 14.2875 3.7837483 L 16.404166 3.7837483 L 16.404166 3.790983 L 15.356168 3.790983 L 15.356168 6.9577148 L 10.064502 6.9577148 L 10.064502 1.6660482 z " />
    </g>
    <g
       id="g5190"
       inkscape:export-filename="g5190.png"
       inkscape:export-xdpi="96"
       inkscape:export-ydpi="96">
      <rect
         style="fill:none;fill-opacity:1;stroke:none;stroke-width:1.07785;stroke-linecap:round;stroke-linejoin:round;stroke-dasharray:none;paint-order:stroke fill markers;stop-color:#000000"
         id="rect4350"
         width="8.4666634"
         height="8.4666662"
         x="16.933332"
         y="0" />
      <path
         id="path1936"
         style="fill:#00004c;stroke:none;stroke-width:0.375086;stroke-linecap:round;stroke-linejoin:round;paint-order:markers fill stroke;stop-color:#000000"
         d="M 24.812884,8.0160481 V 0.60771484 H 17.404551 V 8.0160481 Z m -5.281331,-0.00827 H 17.414887 V 5.8983479 h 2.116666 z M 23.754551,6.9577147 H 20.589886 V 5.8983479 4.8400146 h -1.058333 -2.116666 v -0.00723 h 1.047998 V 1.6660528 h 5.291666 z" />
    </g>
    <g
       id="g5195"
       inkscape:export-filename="g5195.png"
       inkscape:export-xdpi="96"
       inkscape:export-ydpi="96">
      <rect
         style="fill:none;fill-opacity:1;stroke:none;stroke-width:1.07785;stroke-linecap:round;stroke-linejoin:round;stroke-dasharray:none;paint-order:stroke fill markers;stop-color:#000000"
         id="rect4352"
         width="8.4666634"
         height="8.4666662"
         x="25.4"
         y="0" />
      <path
         id="path2116"
         style="fill:#00004c;fill-opacity:1;stroke-width:0.530356;stroke-linecap:round;stroke-linejoin:round;paint-order:markers fill stroke;stop-color:#000000"
         d="M 29.581657 0.60771484 A 3.7041667 3.7041667 0 0 0 25.87749 4.3118815 L 26.935823 4.3118815 A 2.6458333 2.6458333 0 0 1 29.581657 1.6660482 A 2.6458333 2.6458333 0 0 1 32.22749 4.3118815 L 33.285823 4.3118815 A 3.7041667 3.7041667 0 0 0 29.581657 0.60771484 z " />
      <rect
         style="fill:#00004c;fill-opacity:1;stroke:none;stroke-width:0.0414779;stroke-linecap:round;stroke-linejoin:round;stroke-dasharray:none;paint-order:markers fill stroke;stop-color:#000000"
         id="rect2171"
         width="1.0583333"
         height="4.1926603"
         x="29.05249"
         y="3.8509231" />
    </g>
    <g
       id="g5199"
       inkscape:export-filename="g5199.png"
       inkscape:export-xdpi="96"
       inkscape:export-ydpi="96">
      <rect
         style="fill:none;fill-opacity:1;stroke:none;stroke-width:1.07785;stroke-linecap:round;stroke-linejoin:round;stroke-dasharray:none;paint-order:stroke fill markers;stop-color:#000000"
         id="rect4415"
         width="8.4666634"
         height="8.4666662"
         x="0"
         y="8.4666662" />
      <path
         sodipodi:type="star"
         style="font-variation-settings:normal;opacity:1;fill:#00004c;fill-opacity:1;stroke:none;stroke-width:0.530357;stroke-linecap:round;stroke-linejoin:round;stroke-miterlimit:4;stroke-dasharray:none;stroke-dashoffset:0;stroke-opacity:1;paint-order:markers fill stroke;stop-color:#000000;stop-opacity:1"
         id="path2313"
         inkscape:flatsided="false"
         sodipodi:sides="3"
         sodipodi:cx="1.677151"
         sodipodi:cy="10.196485"
         sodipodi:r1="3.310009"
         sodipodi:r2="1.6550045"
         sodipodi:arg1="1.0471976"
         sodipodi:arg2="2.0943952"
         inkscape:rounded="0"
         inkscape:randomized="0"
         d="M 3.3321553,13.063037 0.84964857,11.62976 -1.632858,10.196484 0.84964885,8.7632085 3.3321556,7.3299328 l -1e-7,2.8665522 z"
         transform="matrix(-1.4921073,0,0,1.2922029,5.5424416,-0.3756242)" />
    </g>
    <g
       id="g5203"
       inkscape:export-filename="g5203.png"
       inkscape:export-xdpi="96"
       inkscape:export-ydpi="96">
      <rect
         style="fill:none;fill-opacity:1;stroke:none;stroke-width:1.07785;stroke-linecap:round;stroke-linejoin:round;stroke-dasharray:none;paint-order:stroke fill markers;stop-color:#000000"
         id="rect4417"
         width="8.4666634"
         height="8.4666662"
         x="8.4666662"
         y="8.4666662" />
      <rect
         style="font-variation-settings:normal;opacity:1;fill:#00004c;fill-opacity:1;stroke:none;stroke-width:0.563266;stroke-linecap:round;stroke-linejoin:round;stroke-miterlimit:4;stroke-dasharray:none;stroke-dashoffset:0;stroke-opacity:1;paint-order:markers fill stroke;stop-color:#000000;stop-opacity:1"
         id="rect2315"
         width="7.4083333"
         height="7.4083333"
         x="9.1278572"
         y="9.0961361" />
    </g>
    <g
       id="g5207"
       inkscape:export-filename="g5207.png"
       inkscape:export-xdpi="96"
       inkscape:export-ydpi="96">
      <rect
         style="fill:none;fill-opacity:1;stroke:none;stroke-width:1.07785;stroke-linecap:round;stroke-linejoin:round;stroke-dasharray:none;paint-order:stroke fill markers;stop-color:#000000"
         id="rect4419"
         width="8.4666634"
         height="8.4666662"
         x="16.933332"
         y="8.4666662" />
      <path
         id="path380"
         style="color:#000000;fill:#00004c;stroke-linecap:round;stroke-linejoin:round;paint-order:stroke fill markers;fill-opacity:1"
         d="M 21.371305 9.0976358 A 0.519795 0.519795 0 0 0 20.85144 9.6169839 L 20.85144 12.291239 L 18.177702 12.291239 A 0.519795 0.519795 0 0 0 17.658353 12.810587 A 0.519795 0.519795 0 0 0 18.177702 13.329936 L 20.85144 13.329936 L 20.85144 16.003674 A 0.519795 0.519795 0 0 0 21.371305 16.523539 A 0.519795 0.519795 0 0 0 21.890653 16.003674 L 21.890653 13.329936 L 24.564392 13.329936 A 0.519795 0.519795 0 0 0 25.08374 12.810587 A 0.519795 0.519795 0 0 0 24.564392 12.291239 L 21.890653 12.291239 L 21.890653 9.6169839 A 0.519795 0.519795 0 0 0 21.371305 9.0976358 z " />
    </g>
    <rect
       style="fill:none;fill-opacity:1;stroke:none;stroke-width:1.07785;stroke-linecap:round;stroke-linejoin:round;stroke-dasharray:none;paint-order:stroke fill markers;stop-color:#000000"
       id="rect5246"
       width="8.4666634"
       height="8.4666662"
       x="25.4"
       y="25.4" />
    <g
       id="g5254"
       inkscape:export-filename="g6182.png"
       inkscape:export-xdpi="96"
       inkscape:export-ydpi="96"
       transform="translate(0,16.933333)">
      <rect
         style="fill:none;fill-opacity:1;stroke:none;stroke-width:1.07785;stroke-linecap:round;stroke-linejoin:round;stroke-dasharray:none;paint-order:stroke fill markers;stop-color:#000000"
         id="rect5248"
         width="8.4666634"
         height="8.4666662"
         x="0"
         y="0" />
      <path
         id="path5250"
         style="fill:#7affff;fill-opacity:1;stroke-width:0.530356;stroke-linecap:round;stroke-linejoin:round;paint-order:markers fill stroke;stop-color:#000000"
         d="M 4.2746744,0.60771484 A 3.7041667,3.7041667 0 0 0 0.57050781,4.3118815 3.7041667,3.7041667 0 0 0 4.2746744,8.0160481 3.7041667,3.7041667 0 0 0 7.978841,4.3118815 3.7041667,3.7041667 0 0 0 4.2746744,0.60771484 Z m 0,1.05833336 A 2.6458333,2.6458333 0 0 1 6.9205077,4.3118815 2.6458333,2.6458333 0 0 1 4.2746744,6.9577148 2.6458333,2.6458333 0 0 1 1.6288411,4.3118815 2.6458333,2.6458333 0 0 1 4.2746744,1.6660482 Z" />
      <circle
         style="fill:#7affff;fill-opacity:1;stroke-width:0.325811;stroke-linecap:round;stroke-linejoin:round;paint-order:markers fill stroke;stop-color:#000000"
         id="circle5252"
         cx="4.2746744"
         cy="4.3118815"
         r="1.0583333" />
    </g>
    <g
       id="g5260"
       inkscape:export-filename="g6186.png"
       inkscape:export-xdpi="96"
       inkscape:export-ydpi="96"
       transform="translate(0,16.933333)">
      <rect
         style="fill:none;fill-opacity:1;stroke:none;stroke-width:1.07785;stroke-linecap:round;stroke-linejoin:round;stroke-dasharray:none;paint-order:stroke fill markers;stop-color:#000000"
         id="rect5256"
         width="8.4666634"
         height="8.4666662"
         x="8.4666662"
         y="0" />
      <path
         id="path5258"
         style="fill:#7affff;stroke:none;stroke-width:0.375086;stroke-linecap:round;stroke-linejoin:round;paint-order:markers fill stroke;stop-color:#000000;fill-opacity:1"
         d="M 9.0061685,0.60771484 V 8.0160481 H 16.414502 V 0.60771484 Z m 5.2813315,0.008268 h 2.116666 V 2.725415 H 14.2875 Z M 10.064502,1.6660482 h 3.164665 V 2.725415 3.7837483 h 1.058333 2.116666 v 0.00723 h -1.047998 v 3.1667318 h -5.291666 z" />
    </g>
    <g
       id="g5266"
       inkscape:export-filename="g6190.png"
       inkscape:export-xdpi="96"
       inkscape:export-ydpi="96"
       transform="translate(0,16.933333)">
      <rect
         style="fill:none;fill-opacity:1;stroke:none;stroke-width:1.07785;stroke-linecap:round;stroke-linejoin:round;stroke-dasharray:none;paint-order:stroke fill markers;stop-color:#000000"
         id="rect5262"
         width="8.4666634"
         height="8.4666662"
         x="16.933332"
         y="0" />
      <path
         id="path5264"
         style="fill:#7affff;stroke:none;stroke-width:0.375086;stroke-linecap:round;stroke-linejoin:round;paint-order:markers fill stroke;stop-color:#000000;fill-opacity:1"
         d="M 24.812884,8.0160481 V 0.60771484 H 17.404551 V 8.0160481 Z m -5.281331,-0.00827 H 17.414887 V 5.8983479 h 2.116666 z M 23.754551,6.9577147 H 20.589886 V 5.8983479 4.8400146 h -1.058333 -2.116666 v -0.00723 h 1.047998 V 1.6660528 h 5.291666 z" />
    </g>
    <g
       id="g5274"
       inkscape:export-filename="g6195.png"
       inkscape:export-xdpi="96"
       inkscape:export-ydpi="96"
       transform="translate(0,16.933333)">
      <rect
         style="fill:none;fill-opacity:1;stroke:none;stroke-width:1.07785;stroke-linecap:round;stroke-linejoin:round;stroke-dasharray:none;paint-order:stroke fill markers;stop-color:#000000"
         id="rect5268"
         width="8.4666634"
         height="8.4666662"
         x="25.4"
         y="0" />
      <path
         id="path5270"
         style="fill:#7affff;fill-opacity:1;stroke-width:0.530356;stroke-linecap:round;stroke-linejoin:round;paint-order:markers fill stroke;stop-color:#000000"
         d="M 29.581657,0.60771484 A 3.7041667,3.7041667 0 0 0 25.87749,4.3118815 h 1.058333 a 2.6458333,2.6458333 0 0 1 2.645834,-2.6458333 2.6458333,2.6458333 0 0 1 2.645833,2.6458333 h 1.058333 A 3.7041667,3.7041667 0 0 0 29.581657,0.60771484 Z" />
      <rect
         style="fill:#7affff;fill-opacity:1;stroke:none;stroke-width:0.0414779;stroke-linecap:round;stroke-linejoin:round;stroke-dasharray:none;paint-order:markers fill stroke;stop-color:#000000"
         id="rect5272"
         width="1.0583333"
         height="4.1926603"
         x="29.05249"
         y="3.8509231" />
    </g>
    <g
       id="g5280"
       inkscape:export-filename="g6199.png"
       inkscape:export-xdpi="96"
       inkscape:export-ydpi="96"
       transform="translate(0,16.933333)">
      <rect
         style="fill:none;fill-opacity:1;stroke:none;stroke-width:1.07785;stroke-linecap:round;stroke-linejoin:round;stroke-dasharray:none;paint-order:stroke fill markers;stop-color:#000000"
         id="rect5276"
         width="8.4666634"
         height="8.4666662"
         x="0"
         y="8.4666662" />
      <path
         sodipodi:type="star"
         style="font-variation-settings:normal;opacity:1;fill:#7affff;fill-opacity:1;stroke:none;stroke-width:0.530357;stroke-linecap:round;stroke-linejoin:round;stroke-miterlimit:4;stroke-dasharray:none;stroke-dashoffset:0;stroke-opacity:1;paint-order:markers fill stroke;stop-color:#000000;stop-opacity:1"
         id="path5278"
         inkscape:flatsided="false"
         sodipodi:sides="3"
         sodipodi:cx="1.677151"
         sodipodi:cy="10.196485"
         sodipodi:r1="3.310009"
         sodipodi:r2="1.6550045"
         sodipodi:arg1="1.0471976"
         sodipodi:arg2="2.0943952"
         inkscape:rounded="0"
         inkscape:randomized="0"
         d="M 3.3321553,13.063037 0.84964857,11.62976 -1.632858,10.196484 0.84964885,8.7632085 3.3321556,7.3299328 l -1e-7,2.8665522 z"
         transform="matrix(-1.4921073,0,0,1.2922029,5.5424416,-0.3756242)" />
    </g>
    <g
       id="g5286"
       inkscape:export-filename="g6203.png"
       inkscape:export-xdpi="96"
       inkscape:export-ydpi="96"
       transform="translate(0,16.933333)">
      <rect
         style="fill:none;fill-opacity:1;stroke:none;stroke-width:1.07785;stroke-linecap:round;stroke-linejoin:round;stroke-dasharray:none;paint-order:stroke fill markers;stop-color:#000000"
         id="rect5282"
         width="8.4666634"
         height="8.4666662"
         x="8.4666662"
         y="8.4666662" />
      <rect
         style="font-variation-settings:normal;opacity:1;fill:#7affff;fill-opacity:1;stroke:none;stroke-width:0.563266;stroke-linecap:round;stroke-linejoin:round;stroke-miterlimit:4;stroke-dasharray:none;stroke-dashoffset:0;stroke-opacity:1;paint-order:markers fill stroke;stop-color:#000000;stop-opacity:1"
         id="rect5284"
         width="7.4083333"
         height="7.4083333"
         x="9.1278572"
         y="9.0961361" />
    </g>
    <g
       id="g5292"
       inkscape:export-filename="g5267.png"
       inkscape:export-xdpi="96"
       inkscape:export-ydpi="96"
       transform="translate(0,16.933333)">
      <rect
         style="fill:none;fill-opacity:1;stroke:none;stroke-width:1.07785;stroke-linecap:round;stroke-linejoin:round;stroke-dasharray:none;paint-order:stroke fill markers;stop-color:#000000"
         id="rect5288"
         width="8.4666634"
         height="8.4666662"
         x="16.933332"
         y="8.4666662" />
      <path
         id="path5290"
         style="color:#000000;fill:#7affff;fill-opacity:1;stroke-linecap:round;stroke-linejoin:round;paint-order:stroke fill markers"
         d="M 21.371305,9.0976358 A 0.519795,0.519795 0 0 0 20.85144,9.6169839 v 2.6742551 h -2.673738 a 0.519795,0.519795 0 0 0 -0.519349,0.519348 0.519795,0.519795 0 0 0 0.519349,0.519349 h 2.673738 v 2.673738 a 0.519795,0.519795 0 0 0 0.519865,0.519865 0.519795,0.519795 0 0 0 0.519348,-0.519865 v -2.673738 h 2.673739 A 0.519795,0.519795 0 0 0 25.08374,12.810587 0.519795,0.519795 0 0 0 24.564392,12.291239 H 21.890653 V 9.6169839 A 0.519795,0.519795 0 0 0 21.371305,9.0976358 Z" />
    </g>
  </g>
</svg>
