<?xml version="1.0" encoding="UTF-8" standalone="no"?>
<svg
   width="38.918491"
   height="40"
   viewBox="0 0 38.918491 40"
   version="1.1"
   id="svg4"
   sodipodi:docname="Settings.svg"
   inkscape:export-filename="C:\Users\Stanislav\Desktop\ic_settings_48px.png"
   inkscape:export-xdpi="60"
   inkscape:export-ydpi="60"
   inkscape:version="1.2 (dc2aedaf03, 2022-05-15)"
   xmlns:inkscape="http://www.inkscape.org/namespaces/inkscape"
   xmlns:sodipodi="http://sodipodi.sourceforge.net/DTD/sodipodi-0.dtd"
   xmlns:xlink="http://www.w3.org/1999/xlink"
   xmlns="http://www.w3.org/2000/svg"
   xmlns:svg="http://www.w3.org/2000/svg"
   xmlns:rdf="http://www.w3.org/1999/02/22-rdf-syntax-ns#"
   xmlns:cc="http://creativecommons.org/ns#"
   xmlns:dc="http://purl.org/dc/elements/1.1/">
  <metadata
     id="metadata10">
    <rdf:RDF>
      <cc:Work
         rdf:about="">
        <dc:format>image/svg+xml</dc:format>
        <dc:type
           rdf:resource="http://purl.org/dc/dcmitype/StillImage" />
      </cc:Work>
    </rdf:RDF>
  </metadata>
  <defs
     id="defs8">
    <color-profile
       name="Agfa-:-Swop-Standard"
       xlink:href="file:///C:/Windows/system32/spool/drivers/color/RSWOP.icm"
       id="color-profile2180" />
  </defs>
  <sodipodi:namedview
     pagecolor="#ffffff"
     bordercolor="#666666"
     borderopacity="1"
     objecttolerance="10"
     gridtolerance="10"
     guidetolerance="10"
     inkscape:pageopacity="0"
     inkscape:pageshadow="2"
     inkscape:window-width="1920"
     inkscape:window-height="1027"
     id="namedview6"
     showgrid="false"
     inkscape:zoom="17.916667"
     inkscape:cx="4.0186046"
     inkscape:cy="19.981395"
     inkscape:window-x="-8"
     inkscape:window-y="-8"
     inkscape:window-maximized="1"
     inkscape:current-layer="svg4"
     inkscape:showpageshadow="0"
     inkscape:pagecheckerboard="true"
     inkscape:deskcolor="#d1d1d1" />
  <path
     d="m 34.314245,21.95 c 0.08,-0.64 0.14,-1.29 0.14,-1.95 0,-0.66 -0.06,-1.31 -0.14,-1.95 l 4.23,-3.31 c 0.38,-0.3 0.49,-0.84 0.24,-1.28 l -4,-6.93 c -0.25,-0.43 -0.77,-0.61 -1.22,-0.43 l -4.98,2.01 c -1.03,-0.79 -2.16,-1.46 -3.38,-1.97 l -0.75,-5.3 c -0.09,-0.47 -0.5,-0.84 -1,-0.84 h -8 c -0.5,0 -0.91,0.37 -0.99,0.84 l -0.75,5.3 c -1.22,0.51 -2.35,1.17 -3.38,1.97 L 5.3542449,6.1 c -0.45,-0.17 -0.97,0 -1.22,0.43 l -3.99999996,6.93 c -0.25,0.43 -0.14,0.97 0.24,1.28 l 4.21999996,3.31 c -0.08,0.64 -0.14,1.29 -0.14,1.95 0,0.66 0.06,1.31 0.14,1.95 l -4.21999996,3.31 c -0.38,0.3 -0.49,0.84 -0.24,1.28 l 3.99999996,6.93 c 0.25,0.43 0.77,0.61 1.22,0.43 l 4.9800001,-2.01 c 1.03,0.79 2.16,1.46 3.38,1.97 l 0.75,5.3 c 0.08,0.47 0.49,0.84 0.99,0.84 h 8 c 0.5,0 0.91,-0.37 0.99,-0.84 l 0.75,-5.3 c 1.22,-0.51 2.35,-1.17 3.38,-1.97 l 4.98,2.01 c 0.45,0.17 0.97,0 1.22,-0.43 l 4,-6.93 c 0.25,-0.43 0.14,-0.97 -0.24,-1.28 z m -14.86,5.05 c -3.87,0 -7,-3.13 -7,-7 0,-3.87 3.13,-7 7,-7 3.87,0 7,3.13 7,7 0,3.87 -3.13,7 -7,7 z"
     id="path2"
     style="font-variation-settings:normal;opacity:1;vector-effect:none;fill:#00aa00;fill-opacity:1;stroke-width:1;stroke-linecap:butt;stroke-linejoin:miter;stroke-miterlimit:4;stroke-dasharray:none;stroke-dashoffset:0;stroke-opacity:1;stop-color:#000000;stop-opacity:1" />
</svg>
